<?xml version="1.0" encoding="UTF-8" standalone="no"?>
<!-- Uploaded to: SVG Repo, www.svgrepo.com, Generator: SVG Repo Mixer Tools -->

<svg
   width="55.129318"
   height="50.000038"
   viewBox="0 0 1.6538795 1.5000012"
   fill="none"
   version="1.1"
   id="svg4"
   sodipodi:docname="default_image.svg"
   inkscape:version="1.3.2 (1:1.3.2+202311252150+091e20ef0f)"
   xml:space="preserve"
   inkscape:export-filename="default_image.png"
   inkscape:export-xdpi="256"
   inkscape:export-ydpi="256"
   xmlns:inkscape="http://www.inkscape.org/namespaces/inkscape"
   xmlns:sodipodi="http://sodipodi.sourceforge.net/DTD/sodipodi-0.dtd"
   xmlns="http://www.w3.org/2000/svg"
   xmlns:svg="http://www.w3.org/2000/svg"><defs
     id="defs4" /><sodipodi:namedview
     id="namedview4"
     pagecolor="#ffffff"
     bordercolor="#000000"
     borderopacity="0.25"
     inkscape:showpageshadow="2"
     inkscape:pageopacity="0.0"
     inkscape:pagecheckerboard="0"
     inkscape:deskcolor="#d1d1d1"
     inkscape:zoom="1.4424978"
     inkscape:cx="-11.091871"
     inkscape:cy="59.618808"
     inkscape:window-width="1850"
     inkscape:window-height="1016"
     inkscape:window-x="0"
     inkscape:window-y="0"
     inkscape:window-maximized="1"
     inkscape:current-layer="svg4" /><path
     d="M 1.0577023,0.7500012 H 0.59617728"
     stroke="#1c274c"
     stroke-width="0.115381"
     stroke-linecap="round"
     id="path1"
     style="fill:none;stroke:#3b82f6;stroke-opacity:1" /><path
     d="M 0.82694028,0.5192386 V 0.9807639"
     stroke="#1c274c"
     stroke-width="0.115381"
     stroke-linecap="round"
     id="path2"
     style="fill:none;stroke:#3b82f6;stroke-opacity:1" /><path
     d="m 0.86540028,0.7500012 h -0.07692"
     stroke="#1c274c"
     stroke-width="0.115381"
     stroke-linecap="round"
     id="path3"
     style="fill:none;stroke:#3b82f6;stroke-opacity:1" /><path
     d="m 0.05773128,0.8548692 c 0,-0.235701 0,-0.3535585 0.05762,-0.4382184 0.02494,-0.03665 0.05699,-0.068118 0.09432,-0.092607 0.05541,-0.036349 0.124773,-0.049341 0.230975,-0.053985 0.05068,0 0.09431,-0.037705 0.104253,-0.086498 0.01491,-0.073188 0.08036,-0.1258703 0.156378,-0.1258703 h 0.251332 c 0.07601,0 0.14146502,0.052682 0.15638002,0.1258703 0.0099,0.048793 0.05357,0.086498 0.104251,0.086498 0.106204,0.00464 0.175564,0.017636 0.230978,0.053985 0.03732,0.024489 0.06938,0.055957 0.09432,0.092607 0.05761,0.08466 0.05761,0.2025174 0.05761,0.4382184 0,0.2357086 0,0.3535668 -0.05761,0.4382259 -0.02494,0.036645 -0.057,0.068113 -0.09432,0.092605 -0.08623,0.056568 -0.206264,0.056568 -0.44634102,0.056568 h -0.341869 c -0.240073,0 -0.360108,0 -0.446337,-0.056568 -0.03733,-0.024492 -0.06938,-0.05596 -0.09432,-0.092605 -0.01627,-0.023915 -0.02795,-0.050476 -0.03633,-0.08159"
     stroke="#1c274c"
     stroke-width="0.115381"
     stroke-linecap="round"
     id="path4"
     style="fill:none;stroke:#3b82f6;stroke-opacity:1" /><rect
     style="fill:none;stroke:none;stroke-width:0.0182857"
     id="rect1"
     width="14.981714"
     height="8.9817142"
     x="-6.6639171"
     y="-3.7408559"
     ry="1.0276891" /></svg>
